HIERARCHY
ROOT Hips
{
	OFFSET 0.0 98.73459935188293 0.0
	CHANNELS 6 Xposition Yposition Zposition Zrotation Xrotation Yrotation
	JOINT Spine
	{
		OFFSET 0.48144892789423466 8.302587270736694 -2.877936139702797
		CHANNELS 3 Zrotation Xrotation Yrotation
		JOINT Chest
		{
			OFFSET -0.29696932760998607 14.349877834320068 6.996249035000801
			CHANNELS 3 Zrotation Xrotation Yrotation
			JOINT UpperChest
			{
				OFFSET 0.3466727561317384 5.402982234954834 3.162853419780731
				CHANNELS 3 Zrotation Xrotation Yrotation
				JOINT Neck
				{
					OFFSET 2.163481991738081 20.72303295135498 8.783498406410217
					CHANNELS 3 Zrotation Xrotation Yrotation
					JOINT Head
					{
						OFFSET -1.0770224034786224 -3.8443922996520996 11.200332641601562
						CHANNELS 3 Zrotation Xrotation Yrotation
						End Site
						{
							OFFSET 0 0 0
						}
					}
				}
				JOINT LeftShoulder
				{
					OFFSET 8.362667541950941 12.066149711608887 4.260458052158356
					CHANNELS 3 Zrotation Xrotation Yrotation
					JOINT LeftUpperArm
					{
						OFFSET 12.8469817340374 -1.0401606559753418 0.4102632403373718
						CHANNELS 3 Zrotation Xrotation Yrotation
						JOINT LeftLowerArm
						{
							OFFSET 3.5241201519966125 -20.394444465637207 -18.37311163544655
							CHANNELS 3 Zrotation Xrotation Yrotation
							JOINT LeftHand
							{
								OFFSET 9.399691224098206 -22.64796495437622 2.9223084449768066
								CHANNELS 3 Zrotation Xrotation Yrotation
								End Site
								{
									OFFSET 0 0 0
								}
							}
						}
					}
				}
				JOINT RightShoulder
				{
					OFFSET -7.011356670409441 14.048516750335693 4.411850124597549
					CHANNELS 3 Zrotation Xrotation Yrotation
					JOINT RightUpperArm
					{
						OFFSET -11.983946710824966 -1.370680332183838 -2.167729288339615
						CHANNELS 3 Zrotation Xrotation Yrotation
						JOINT RightLowerArm
						{
							OFFSET -2.0093873143196106 -23.916828632354736 -15.29955379664898
							CHANNELS 3 Zrotation Xrotation Yrotation
							JOINT RightHand
							{
								OFFSET -12.075354158878326 -23.368489742279053 0.3974545747041702
								CHANNELS 3 Zrotation Xrotation Yrotation
								End Site
								{
									OFFSET 0 0 0
								}
							}
						}
					}
				}
			}
		}
	}
	JOINT LeftUpperLeg
	{
		OFFSET 5.442648380994797 -12.02470064163208 -1.0071414522826672
		CHANNELS 3 Zrotation Xrotation Yrotation
		JOINT LeftLowerLeg
		{
			OFFSET 2.6011213660240173 -36.93385720252991 2.4444601498544216
			CHANNELS 3 Zrotation Xrotation Yrotation
			JOINT LeftFoot
			{
				OFFSET -8.511854708194733 -43.096923828125 -0.4461701959371567
				CHANNELS 3 Zrotation Xrotation Yrotation
				JOINT LeftToe
				{
					OFFSET 5.648314952850342 -5.47821968793869 11.842536181211472
					CHANNELS 3 Zrotation Xrotation Yrotation
					End Site
					{
						OFFSET 0 0 0
					}
				}
			}
		}
	}
	JOINT RightUpperLeg
	{
		OFFSET -6.814553588628769 -12.192082405090332 -3.0690601095557213
		CHANNELS 3 Zrotation Xrotation Yrotation
		JOINT RightLowerLeg
		{
			OFFSET -6.281068176031113 -35.71212887763977 0.21993499249219894
			CHANNELS 3 Zrotation Xrotation Yrotation
			JOINT RightFoot
			{
				OFFSET 2.0017676055431366 -43.01717281341553 2.5388412177562714
				CHANNELS 3 Zrotation Xrotation Yrotation
				JOINT RightToe
				{
					OFFSET -6.210248917341232 -5.943999253213406 12.186853587627411
					CHANNELS 3 Zrotation Xrotation Yrotation
					End Site
					{
						OFFSET 0 0 0
					}
				}
			}
		}
	}
}
MOTION
Frames: 7
Frame Time: 0.03333333333333333
-0.040109969675540924 0.9906545877456665 -0.045621588826179504 0.36727351847591605 -1.094278895301516 0.003507354787108412 -72.29261903259781 -40.12921272165789 -41.25447535445879 84.80238474538476 -26.506903915876215 34.00545367003736 nan nan 0.0 -7.801808135937973 -7.14390164062859 -1.428370488230899 6.545395346071635 -4.524018901881936 1.3047535196519096 -4.562653921068792 43.77370782836788 3.507419784888769 -2.652211333859927 0.052683047744802695 -0.07673801290129408 2.6415225427249927 -0.7308154127241404 0.21701028024459704 -0.16800959744061225 -0.06323283811157972 0.1784472345874141 49.70569608241002 -46.45510887056385 30.775864119356548 -33.01712861418407 -48.684563674567485 -18.19120625467958 -0.07492271212692332 -0.3725530132383038 0.12343280581879566 -9.892285994523418 -9.770863417556862 11.276323077834586 9.793688800154918 -2.8979490690902527 -9.6753947334947 -11.583939613953687 68.37988133970012 3.585983256676513 -41.986799455809994 -9.245854843076273 20.461348395152303 52.10172632092554 1.4698861328213297 -36.1748240452938 -32.64508167583389 -23.886532944000987 69.91315623461261 39.7485771814714 0.2855676239722199 -51.41555121402522 0.15530019392621106 -32.3918034301289 -6.205951421107822 1.9131050976393351 -14.276622045159911 8.367164316339823
-0.03947938606142998 0.993882954120636 -0.036651674658060074 0.5537791622106526 -2.134162506879696 0.010314901002816429 -73.74039359557112 -41.560887738939876 -46.815535210499455 85.50603110389402 -25.77983123974962 38.28755683142724 0.0 0.0 0.0 -7.436910753889768 -6.131964107992814 -1.0970749543838938 6.228332589606534 -3.6682467518369313 1.0248688622403332 -4.523573402641612 40.68842247335008 3.1633725217465427 -2.5065120254637203 0.25040623050274863 -0.02083980019509914 2.4154008316221325 -0.5051944628697337 0.1487061310235493 -0.21818381720373298 -0.07105898883272634 0.19116088607428575 52.22848846862431 -47.98025744978139 32.18449787709803 -33.19480569028409 -50.53488620991355 -18.194149197817126 -0.05858410089126078 -0.39270237919445483 0.09797138523614801 -10.601493941473628 -9.684224835363088 9.752016661529609 10.946195179600451 -2.4773200013020804 -8.881520080312148 -15.118156468243104 68.85133448714154 6.5286632604582 -43.67293338633577 -9.359801384375814 16.446722463841162 54.4020855308156 2.0736450889140183 -32.619014570327934 -36.29279778074101 -26.961044105142072 65.16753979931698 43.53574774328005 -0.8390998455674064 -49.05471568435236 0.5625022982041616 -33.8238872427073 -6.309528064477762 1.9077742273559062 -15.393506072304191 8.399365891033966
-0.03833264112472534 0.9977325201034546 -0.02494949847459793 0.7739620637253342 -3.767658385491391 0.025456676029080683 -75.60964101328781 -42.955190436553025 -52.988701176848906 86.07217165250941 -25.222874922784378 43.37103881625387 0.0 0.0 0.0 -7.201784295852134 -5.045919481579297 -0.7486489778319976 5.92825682007815 -2.7804695424424835 0.7332637362745998 -4.139455556399727 37.11602986669182 2.602589444932399 -2.2665509870294813 0.5471995573235687 0.04158555430007794 2.1973828034292007 -0.23706312749179678 0.06925776444462228 -0.27778939881099146 -0.0809932280467659 0.1927095374575982 55.79289946253703 -50.438281724568846 34.37213080797017 -33.62649513542141 -53.269452209660045 -18.446708584614125 -0.03866861639752538 -0.4265868882838966 0.0757266997437502 -11.375945309731907 -9.590331171481896 8.04460747815984 12.291425565811934 -1.9898272151215295 -7.873353092218371 -18.584343182323806 69.29082636132343 9.265876528694458 -45.2061773581666 -9.191392689317032 11.669017516085193 56.72665686330818 2.9747216225215554 -28.130188299075964 -41.15366435019105 -29.94148513566899 58.58567795678555 47.819887452221224 -1.7082031723462576 -45.3544584250509 0.9645450469123402 -35.22920884382494 -6.3122636391348355 1.8271915323079113 -16.58452028528695 8.3381841069054
-0.0366596058011055 1.001538634300232 -0.009709551930427551 0.967063762451734 -6.049226345938779 0.05109945649223167 -78.00930962951321 -44.02639257200069 -59.37299169120424 86.40839551315734 -24.832720548517138 48.988478610166354 0.0 0.0 0.0 -7.197165288143518 -4.015211385777517 -0.4303606342594182 5.813460154001325 -1.9368159232674256 0.4503234875128795 -3.4815737373119355 33.25721736449122 1.9006706520090144 -2.030878313385281 0.956624034521665 0.09461458160306811 1.9960121533767123 0.06318086708406448 -0.016727650688444697 -0.3282104973362882 -0.08475057775686554 0.17177750006880949 60.50224883378013 -53.493119117929396 37.4459209301372 -34.42843148499874 -56.71088587448755 -19.04788644220104 -0.010630898689029198 -0.502473055166672 0.059570374469425355 -12.154963644216428 -9.505238209931386 6.24781252494151 13.764897063186638 -1.525732821500813 -6.637743052915398 -21.84453959574896 69.92409197259435 11.67282895093651 -46.18766600669149 -8.7600592816118 6.453582623204216 58.654531074131214 4.124550424056714 -22.761438504766186 -47.138417827256006 -32.326718665969395 50.187627352067544 52.5226683989568 -2.1777092792776025 -40.30354054604238 1.2846082267431667 -36.49324172497967 -6.0881494025833005 1.6432364996745767 -17.733952507124705 8.075776292375716
-0.03455481678247452 1.0038399696350098 0.008931513875722885 1.0541290928100377 -8.831542722727212 0.08140498173021042 -80.60571277106351 -44.58096257946097 -65.26832759084486 86.34774435888525 -24.620943180686965 54.57469498305948 0.0 0.0 0.0 -7.388207206021989 -3.0994716824745487 -0.17002592528212 5.923469594029134 -1.1695356552095535 0.18809884761548093 -2.7120536317630264 29.320523182792677 1.1923954606973983 -1.8984195577163363 1.488970927086508 0.13106665988569285 1.8461691537164406 0.35901044547269406 -0.09644729157067451 -0.3381820237670042 -0.06750407476580668 0.12541832047807502 65.67249195457116 -56.4378081182496 40.90348887890466 -35.556304984513446 -60.304897137954974 -19.987572011691995 0.027290889287740164 -0.6644774540702633 0.05516190003384427 -12.869991299329028 -9.473810045518748 4.480873365597731 15.136093736552187 -1.1875167420186512 -5.169701754925643 -24.911576018629653 70.91082616672801 13.767177667908358 -46.39762871389229 -8.242030773024586 1.3119232018595421 60.0908985817828 5.39290186184675 -16.944251808098215 -53.48573499249149 -33.646489862698616 40.72655004578651 56.962098902381854 -1.9777286295208802 -34.24796005186427 1.4308982312709817 -37.18289527470138 -5.676476189379093 1.311470808955413 -18.37727816113311 7.499049769252744
-0.032199714332818985 1.004274606704712 0.029652753844857216 0.9889148397325359 -11.889212995858019 0.10297512093647138 -82.90288245550254 -44.53071111261303 -70.09926465442248 85.90362360588568 -24.72905839702203 59.8190353474001 0.0 0.0 0.0 -7.726558381476192 -2.263922017582359 0.03485615299736518 6.192399194948528 -0.48358468832098234 -0.05051327202786998 -1.9252701110620243 25.42569884729822 0.5990864558566001 -1.8474788142103338 2.1619518303644303 0.14996684978127026 1.7459435165574042 0.6240489916987698 -0.16303787619316124 -0.30614936074654747 -0.024768395525304306 0.07192344593396054 70.53153468486128 -58.99281829655008 44.18472799612386 -36.449857937993045 -63.596811637894746 -20.894844699948145 0.06825169921141193 -0.9704666960342669 0.06855427758764565 -13.521235256559008 -9.564476808042059 2.8124342731883596 16.170429167565086 -1.081606682571485 -3.5181456577922976 -27.17810927672563 72.1482931523178 14.989488682005367 -45.98718637731654 -7.723263183450608 -3.4624559774435877 61.20391770583717 6.676464862712842 -10.977747458225924 -59.683418508482994 -33.72295617951913 30.99985817635021 60.55356522825251 -1.0403269526449572 -27.545528902578386 1.5823051713554452 -37.15413796016137 -5.196673551467147 0.8533883694878467 -18.19916108628583 6.616430094957904
-0.02984796278178692 1.0030604600906372 0.05062141269445419 0.7651485207039787 -15.097288054874177 0.10139613744527091 -84.61339061633633 -43.954727467391116 -73.76856663547055 85.16476782186977 -25.224087940626234 64.6654371323356 0.0 0.0 0.0 -8.245744406714739 -1.461812891732778 0.1936928877849017 6.520606824803659 0.16504906981414752 -0.280785196574775 -1.156432883954482 21.43325064105745 0.19189791163931783 -1.8264887157607217 3.0874322778466765 0.14500319823848015 1.6780603274795896 0.8693223839466 -0.22132958777792933 -0.25664840617460505 0.04735759394401156 0.027400708921260005 75.22435048957188 -61.40106561979185 47.40229360423128 -36.78455623268465 -66.69389815471781 -21.55057767056451 0.1097904297605967 -1.5195125810298982 0.10090330956906328 -14.164912602703017 -9.927733916260973 1.2103224014379859 16.772684512562876 -1.3070347123441983 -1.7597494651851464 -27.22097114066574 73.0936129367853 14.228192158998327 -45.05620102112271 -7.2334248080135914 -7.963419535730743 61.699688184643634 8.105371797490953 -4.720657157665377 -65.72269374619881 -32.66328602350796 21.03104634697361 63.62736184750239 0.5523689292992666 -20.371574710310192 1.8753517976017926 -36.663448232595265 -4.64590365512681 0.3197809708816704 -17.30307947125488 5.513621240243381
